<?xml version="1.0" standalone="no"?>
<!DOCTYPE svg PUBLIC "-//W3C//DTD SVG 20010904//EN"
 "http://www.w3.org/TR/2001/REC-SVG-20010904/DTD/svg10.dtd">
<svg version="1.0" xmlns="http://www.w3.org/2000/svg"
 width="48.000000pt" height="48.000000pt" viewBox="0 0 48.000000 48.000000"
 preserveAspectRatio="xMidYMid meet">

<g transform="translate(0.000000,48.000000) scale(0.100000,-0.100000)"
fill="#000000" stroke="none">
<path d="M0 240 l0 -240 240 0 240 0 0 240 0 240 -142 -1 c-137 -1 -141 -1
-108 -16 19 -8 42 -21 51 -29 15 -13 16 -12 12 11 -3 15 -1 25 6 25 6 0 11 -4
11 -9 0 -5 18 -12 41 -16 56 -10 75 -32 83 -99 4 -31 12 -56 18 -56 7 0 7 -5
-1 -14 -6 -7 -9 -22 -5 -32 5 -18 5 -18 -6 -1 -7 11 -14 46 -16 80 -6 77 -24
107 -65 107 -28 0 -29 -2 -18 -22 7 -13 16 -26 21 -29 5 -3 4 -18 -2 -34 l-11
-29 22 19 c22 20 22 20 10 -2 -15 -30 -14 -32 11 -25 15 4 19 2 13 -8 -4 -7
-2 -16 6 -21 10 -6 8 -9 -8 -9 -14 0 -30 -11 -40 -27 -9 -16 -29 -39 -44 -53
-14 -14 -24 -31 -22 -37 3 -7 0 -13 -6 -13 -6 0 -11 7 -11 16 0 11 -6 14 -20
9 -14 -4 -20 -2 -20 9 0 10 6 13 16 9 10 -4 17 2 21 16 3 12 11 20 18 17 6 -2
18 0 26 6 11 8 11 9 -3 4 -10 -3 -20 -1 -23 5 -4 5 -11 7 -16 3 -5 -3 -24 -2
-42 2 -31 7 -31 7 -8 16 13 4 33 6 44 2 16 -5 19 -3 14 10 -5 11 -1 16 13 16
13 0 18 5 14 15 -4 8 -1 15 5 15 6 0 11 -12 11 -26 0 -21 -4 -25 -17 -19 -15
5 -16 4 -5 -6 17 -18 35 1 30 32 -3 23 -16 29 -100 46 -16 3 -28 9 -28 14 0
10 53 12 63 2 4 -3 19 -8 34 -9 l28 -3 -25 14 c-38 20 -151 46 -172 40 -28 -9
-22 4 7 15 16 6 41 6 67 1 l40 -9 -28 30 c-22 23 -30 26 -32 14 -3 -12 -16
-16 -50 -16 -26 0 -52 -4 -59 -8 -18 -12 -30 -52 -31 -106 -1 -53 -8 -68 -22
-46 -5 8 -5 17 -1 20 4 3 11 29 14 59 8 68 27 89 88 97 32 4 49 11 49 20 0 11
-20 14 -90 14 l-90 0 0 -240z m120 115 c-37 -27 -40 -29 -40 -17 0 9 50 41 64
42 6 0 -5 -11 -24 -25z m75 15 c-3 -5 -10 -10 -16 -10 -5 0 -9 5 -9 10 0 6 7
10 16 10 8 0 12 -4 9 -10z m-80 -59 c-3 -5 -1 -12 4 -16 6 -3 8 -12 4 -20 -3
-9 1 -15 10 -15 10 0 13 8 9 25 -2 15 0 25 7 25 7 0 9 -13 6 -35 -3 -30 -1
-36 20 -41 30 -7 31 -15 5 -31 -25 -16 -41 -9 -62 27 -10 17 -28 35 -40 40
-13 5 -18 9 -11 9 7 1 10 8 6 18 -5 13 -2 15 11 10 10 -4 15 -3 11 3 -3 6 1
10 10 10 9 0 14 -4 10 -9z m126 -16 c5 4 7 11 4 16 -4 5 1 9 9 9 9 0 16 -6 16
-12 -1 -44 -53 -51 -58 -8 -2 22 -1 23 8 7 6 -9 16 -15 21 -12z m-156 -56 c0
-7 -8 -15 -17 -17 -18 -3 -25 18 -11 32 10 10 28 1 28 -15z m332 6 c7 -20 -2
-29 -21 -22 -9 4 -13 13 -10 22 8 19 23 19 31 0z m-346 -53 c28 -16 42 -40 17
-28 -7 3 -21 9 -30 12 -10 4 -18 13 -18 20 0 8 -4 14 -9 14 -5 0 -6 10 -3 23
l7 22 3 -23 c2 -13 17 -31 33 -40z m389 17 c0 -5 -4 -8 -8 -5 -5 3 -21 -6 -38
-20 -22 -19 -23 -22 -6 -14 12 6 22 9 22 6 0 -2 3 -12 7 -21 5 -14 2 -16 -15
-11 -11 4 -23 2 -27 -4 -11 -18 -25 -10 -25 15 0 14 5 25 11 25 6 0 22 9 36
20 29 22 43 25 43 9z m-264 -37 c-9 -15 -48 -23 -43 -9 2 7 9 12 15 12 5 0 14
3 18 8 10 9 18 1 10 -11z m-136 -23 c0 -5 -4 -9 -10 -9 -5 0 -10 7 -10 16 0 8
5 12 10 9 6 -3 10 -10 10 -16z m41 -16 c1 -17 2 -17 6 0 5 21 23 23 23 2 0
-16 29 -10 43 9 5 8 10 7 16 -3 6 -9 28 -13 70 -12 58 1 60 0 49 -19 -15 -23
-24 -25 -31 -7 -4 8 -6 7 -6 -3 -1 -11 -14 -15 -51 -15 -27 0 -50 3 -50 8 0 4
-5 7 -11 7 -5 0 -7 -5 -3 -12 5 -8 2 -9 -9 -5 -9 3 -20 1 -23 -5 -5 -8 -10 -5
-15 8 -7 17 -8 17 -8 2 -2 -37 -21 -16 -21 22 0 38 19 58 21 23z m311 -29 c-5
-35 -11 -44 -29 -44 -14 0 -15 2 -4 9 8 5 9 11 3 15 -5 3 -12 -1 -16 -9 -7
-18 -27 -20 -23 -2 1 6 -6 11 -15 9 -22 -4 -23 2 -1 27 23 27 89 24 85 -5z"/>
</g>
</svg>
